<svg xmlns="http://www.w3.org/2000/svg" width="64.886" height="57.676" viewBox="0 0 64.886 57.676">
    <path id="exclamation-triangle-solid_1_" data-name="exclamation-triangle-solid (1)"
          d="M64.155,49.567a5.41,5.41,0,0,1-4.684,8.109H5.413A5.41,5.41,0,0,1,.729,49.567L27.759,2.7a5.41,5.41,0,0,1,9.367,0L64.155,49.567ZM32.443,39.878a5.182,5.182,0,1,0,5.182,5.182A5.182,5.182,0,0,0,32.443,39.878Zm-4.92-18.626.836,15.32a1.352,1.352,0,0,0,1.35,1.278h5.469a1.352,1.352,0,0,0,1.35-1.278l.836-15.32a1.352,1.352,0,0,0-1.35-1.425h-7.14a1.352,1.352,0,0,0-1.35,1.425Z"
          transform="translate(0)" fill="#333"/>
</svg>